<?xml version="1.0" encoding="utf-8"?>
<!-- Generator: Adobe Illustrator 13.0.2, SVG Export Plug-In . SVG Version: 6.00 Build 14948)  -->
<!DOCTYPE svg PUBLIC "-//W3C//DTD SVG 1.1//EN" "http://www.w3.org/Graphics/SVG/1.1/DTD/svg11.dtd">
<svg version="1.1" id="Layer_1" xmlns="http://www.w3.org/2000/svg" xmlns:xlink="http://www.w3.org/1999/xlink" x="0px" y="0px"
	 width="353.209px" height="182.186px" viewBox="0 0 353.209 182.186" enable-background="new 0 0 353.209 182.186"
	 xml:space="preserve">
<g>
	<path d="M330.084,70.199c3.078-0.745,1.922,2.744,5,2c1.64,2.14-2.549,4.854-1,9.999l-1.833-0.5l-1.167,1.5
		c-2.235-0.432-0.405-4.929-1-7l0.444-2.723l-2.444-1.276c0-0.333,0-0.667,0-1l1.5,0.5L330.084,70.199z"/>
	<path d="M332.917,83.698l1.167-1.5c6.869,4.129,12.841,9.155,18.997,13.998c0.697,5.029-1.696,6.97-1,11.998
		c-30.646,2.781-58.67,6.19-87.988,9.999c-9.23,1.199-19.859,1.675-27.996,3.999c-12.092,3.456-16.467,12.16-30.996,13.999
		c-7.099,0.897-12.355-1.795-19.998-1c-9.243,0.961-20.285,7.338-29.997,10.998c-28.904,10.896-59.091,22.764-84.989,35.996
		c-7.776-7.976-12.236-18.503-17.998-27.997c-16.69-27.502-35.008-55.856-51.993-83.988c-0.895-3.229,3.261-1.405,4-3l1.5,0.5
		l1.5-0.5c20.867,34.459,42.363,68.289,63.992,101.986c0.595-2.07-1.236-6.567,1-6.999l1.167,1.5l1.833-0.5
		c1.327,4.385-1.89,9.365-1,9.999c36.686-17.974,64.597-44.724,119.984-43.995c-0.848-11.512,5.246-16.084,8.998-22.997
		c-1.582-0.083-3.812,0.481-3.998-1l0.5-1.499l-0.5-1.5c0.851,0.185,0.942-0.39,1-1l1.355-1.214l-0.355-1.786
		c3.864,0.136,3.942,4.057,6.998,5l1.215,1.356l1.785-0.356c-0.668,4.331-4.627,5.371-5,9.998c4.711-0.289,7.08-2.919,12.998-1.999
		c3.942,1.058,3.812,6.188,6,8.998c19.527-24.133,67.58-19.74,109.986-20.997c-1.188-5.811-4.154-9.844-4-16.997L332.917,83.698z"/>
	<path d="M5.958,65.7l-1.833,0.5c0.083-1.583-0.481-3.814,1-4l1.167,1.5l1.833-0.5c-0.083,1.583,0.481,3.812-1,4L5.958,65.7z"/>
	<g>
		<path fill="none" stroke="#000000" stroke-width="3.1619" stroke-linecap="round" d="M332.251,81.698
			c0.222,0.667,0.444,1.333,0.666,2"/>
		<path fill="none" stroke="#000000" stroke-width="3.0818" stroke-linecap="round" d="M5.625,67.7c0.04-0.667,0.184-1.333,0.333-2"
			/>
		<path fill="none" stroke="#000000" stroke-width="3.3387" stroke-linecap="round" d="M6.292,63.7
			c0.844-4.938,1.585-11.268,6.732-13.6"/>
		<path fill="none" stroke="#000000" stroke-width="2.2807" stroke-linecap="round" d="M13.024,50.102
			C44.302,29.346,88.078-3.624,124.468,26.99"/>
		<path fill="none" stroke="#000000" stroke-width="2.328" stroke-linecap="round" d="M124.468,26.99
			C146.001-8.966,193.063,8.878,227.442,1.248C261.251,25.011,296.536,47.15,329.585,71.7"/>
		<path fill="none" stroke="#000000" stroke-width="3.9899" stroke-linecap="round" d="M209.313,104.552
			c27.562-37.675,80.914-24.114,121.216-31.075"/>
		<path fill="none" stroke="#000000" stroke-width="3.0382" stroke-linecap="round" d="M124.468,26.99
			c26.053,23.891,50.821,49.292,76.99,72.99"/>
		<path fill="none" stroke="#000000" stroke-width="2.6156" stroke-linecap="round" d="M13.024,50.102
			c22.017,30.93,40.332,64.812,62.092,96.088"/>
		<path fill="none" stroke="#000000" stroke-width="2.9805" stroke-linecap="round" d="M75.117,146.189
			c39.787-18.125,77.92-48.677,124.483-42.494"/>
		<path fill="none" stroke="#000000" stroke-width="3.7282" stroke-linecap="round" d="M75.117,146.189
			c-0.556,5.836-0.93,11.693-1.833,17.498"/>
	</g>
</g>
</svg>
